<?xml version="1.0" encoding="utf-8" ?>		<svg version="1.1" xmlns="http://www.w3.org/2000/svg" xmlns:xlink="http://www.w3.org/1999/xlink" width="200px" height="200px" viewBox="0 0 2048.0 2048.0">		<g id="document" transform="matrix(1,0,0,1,1024.0,1024.0)">			<g>				<path d="M107.756,613.197 L363.341,613.197 L363.341,485.296 C815.892,485.296 980.641,241.611 980.641,3.61688 C980.641,-234.377 812.361,-461.25 363.341,-461.25 L107.756,-461.25 L107.756,613.197 Z " fill="#532075" fill-opacity="1.00" />				<path d="M-205.715,-461.25 C-760.32,-461.25 -980.641,4.40282 -980.641,4.40282 C-980.641,4.40282 -783.738,474.443 -205.715,474.443 C-187.728,474.443 64.608,474.443 64.608,474.443 L64.608,287.304 L-205.715,287.304 C-328.212,287.304 -557.112,209.319 -595.547,100.166 L-205.715,100.166 L-205.715,-86.9731 L-595.547,-86.9731 C-557.112,-196.127 -328.212,-274.112 -205.715,-274.112 L64.608,-274.112 L64.608,-461.25 C64.608,-461.25 -196.531,-461.25 -205.715,-461.25 Z " fill="#532075" fill-opacity="1.00" />				<path d="M107.756,-480.062 L364.607,-480.062 L364.607,-613.197 L107.756,-613.197 L107.756,-480.062 Z " fill="#532075" fill-opacity="1.00" />			</g>		</g>	</svg>